<svg width="512" height="512" viewBox="0 0 512 512" fill="none" xmlns="http://www.w3.org/2000/svg">
<g clip-path="url(#clip0_800_502)">
<path d="M254.8 357.9C253.5 356.6 251.6 355.8 249.8 355.8C247.9 355.8 246.1 356.6 244.8 357.9C243.5 359.2 242.7 361.1 242.7 362.9C242.7 364.8 243.5 366.6 244.8 367.9C246.1 369.2 248 370 249.8 370C251.7 370 253.5 369.2 254.8 367.9C256.1 366.6 256.9 364.7 256.9 362.9C256.9 361 256.1 359.2 254.8 357.9Z" fill="white"/>
<path d="M301.081 340.582V266.916C301.081 263.535 299.39 260.436 296.714 258.605C293.897 256.774 290.517 256.352 287.418 257.619L115.014 327.06H59.5178C27.8259 327.06 2.0498 352.836 2.0498 384.528C2.0498 416.22 27.8259 441.996 59.5178 441.996H66.1379V501.999C66.1379 507.492 70.6452 512 76.1384 512H116.986C122.479 512 126.986 507.492 126.986 501.999V446.785L287.418 511.295C288.685 511.718 289.953 512 291.08 512C293.052 512 295.024 511.436 296.714 510.309C299.531 508.478 301.081 505.38 301.081 501.999V428.474C321.082 423.967 336.153 405.937 336.153 384.528C336.153 363.118 321.222 345.089 301.081 340.582ZM106.985 491.999H86.139V441.996H106.985V491.999ZM106.985 421.995H59.5178C38.8124 421.995 22.0509 405.233 22.0509 384.528C22.0509 363.822 38.8124 347.061 59.5178 347.061H106.985V421.995ZM281.079 487.21L126.986 425.234V343.821L236.429 299.734V399.036C236.429 404.529 240.936 409.036 246.43 409.036C251.923 409.036 256.43 404.529 256.43 399.036V291.706L281.079 281.705V487.21ZM301.081 407.487V361.569C309.954 365.372 316.152 374.246 316.152 384.528C316.152 394.81 309.954 403.543 301.081 407.487Z" fill="white"/>
<path d="M431.651 374.809H375.028C369.535 374.809 365.028 379.316 365.028 384.81C365.028 390.303 369.535 394.81 375.028 394.81H431.651C437.144 394.81 441.652 390.303 441.652 384.81C441.652 379.316 437.144 374.809 431.651 374.809Z" fill="white"/>
<path d="M385.169 301.425C381.225 297.481 374.887 297.481 371.084 301.425L351.506 321.003C347.562 324.947 347.562 331.286 351.506 335.089C353.477 337.06 356.013 338.046 358.548 338.046C361.084 338.046 363.619 337.06 365.591 335.089L385.169 315.51C389.113 311.707 389.113 305.369 385.169 301.425Z" fill="white"/>
<path d="M385.874 452.982L365.732 432.84C361.788 428.896 355.45 428.896 351.647 432.84C347.703 436.784 347.703 443.122 351.647 446.926L371.789 467.068C373.761 469.039 376.296 470.025 378.831 470.025C381.367 470.025 383.902 469.039 385.874 467.068C389.818 463.264 389.818 456.926 385.874 452.982Z" fill="white"/>
<path d="M474.189 0H288.122C266.008 0 248.12 17.8883 248.12 40.0022V43.9461H80.0822C66.842 43.9461 56.1372 54.6509 56.1372 67.8911V225.928C56.1372 239.168 66.842 249.873 80.0822 249.873H90.3645V280.579C90.3645 284.664 92.759 288.326 96.562 289.875C97.8297 290.439 99.0974 290.58 100.365 290.58C102.9 290.58 105.577 289.594 107.408 287.622L145.156 249.873H343.9C357.14 249.873 367.845 239.168 367.845 225.928V195.926H474.048C496.162 195.926 514.05 178.038 514.05 155.924V40.0022C514.191 17.8883 496.162 0 474.189 0ZM347.844 225.928C347.844 228.182 346.013 229.872 343.9 229.872H141.072C138.395 229.872 135.86 230.858 134.029 232.83L110.366 256.493V240.013C110.366 234.52 105.858 230.013 100.365 230.013H80.0822C77.8286 230.013 76.1383 228.182 76.1383 226.069V67.8911C76.1383 65.6375 77.9694 63.9472 80.0822 63.9472H248.12V155.924C248.12 178.038 266.008 195.926 288.122 195.926H347.844V225.928ZM494.19 155.924C494.19 166.911 485.175 175.925 474.189 175.925H288.122C277.135 175.925 268.121 166.911 268.121 155.924V40.0022C268.121 29.0157 277.135 20.0011 288.122 20.0011H474.189C485.175 20.0011 494.19 29.0157 494.19 40.0022V155.924Z" fill="white"/>
<path d="M421.369 89.3002L352.914 49.7205C349.815 47.8894 346.012 47.8894 342.914 49.7205C339.815 51.5516 337.843 54.7912 337.843 58.3125V137.331C337.843 140.852 339.815 144.233 342.914 145.923C344.463 146.768 346.153 147.332 347.984 147.332C349.675 147.332 351.506 146.909 353.055 145.923L421.51 106.343C424.608 104.512 426.58 101.273 426.58 97.7513C426.299 94.3709 424.468 91.1312 421.369 89.3002ZM357.844 120.147V75.7783L396.297 98.033L357.844 120.147Z" fill="white"/>
<path d="M216.569 104.935H116.563C111.07 104.935 106.562 109.442 106.562 114.936C106.562 120.429 111.07 124.936 116.563 124.936H216.569C222.062 124.936 226.569 120.429 226.569 114.936C226.569 109.442 222.203 104.935 216.569 104.935Z" fill="white"/>
<path d="M223.752 163.952C221.921 162.121 219.245 160.994 216.71 160.994C214.034 160.994 211.498 162.121 209.667 163.952C207.836 165.783 206.709 168.459 206.709 170.995C206.709 173.671 207.836 176.206 209.667 178.037C211.498 179.868 214.174 180.995 216.71 180.995C219.386 180.995 221.921 179.868 223.752 178.037C225.584 176.206 226.71 173.53 226.71 170.995C226.569 168.319 225.584 165.783 223.752 163.952Z" fill="white"/>
<path d="M179.102 160.994H116.563C111.07 160.994 106.562 165.501 106.562 170.995C106.562 176.488 111.07 180.995 116.563 180.995H179.102C184.595 180.995 189.102 176.488 189.102 170.995C189.102 165.501 184.595 160.994 179.102 160.994Z" fill="white"/>
</g>
<defs>
<clipPath id="clip0_800_502">
<rect width="512" height="512" fill="white"/>
</clipPath>
</defs>
</svg>
